#!OML:ASF E:\I on waltz\AllaLogoMonkeySwing\Project 1\Capture day 1\Session 1\Subject1.ASF
:FULLY-SPECIFIED
:DEGREES
601
root 1.57294 6.67619 -1.81583 -33.3766 -3.39415 0.879331
lowerback 35.4084 2.1815 -2.11332
upperback 11.8865 2.09712 1.33112
thorax -4.83941 0.916807 1.78017
lowerneck -14.4913 2.34228 0.920502
upperneck 3.16942 3.14105 -2.5547
head 3.69304 1.44344 -0.777006
rclavicle -7.03201e-015 1.35174e-014
rhumerus -29.554 15.1748 -92.1524
rradius 101.338
rwrist 25.0802
rhand -27.8921 -32.3418
rfingers 7.12502
rthumb -1.28172 -62.3177
lclavicle -7.03201e-015 1.35174e-014
lhumerus -35.7271 -14.4534 99.7636
lradius 105.096
lwrist -12.7318
lhand -24.6637 -43.6464
lfingers 7.12502
lthumb 1.83634 -13.6745
rfemur -81.2387 -20.707 25.596
rtibia 133.281
rfoot -20.0002 1.73623
rtoes 29.9781
lfemur -79.6728 33.1407 -21.2381
ltibia 133.277
lfoot -28.0418 -16.1184
ltoes -3.43201
602
root 1.57378 6.6779 -1.81802 -33.4332 -3.32889 0.794632
lowerback 35.519 2.13437 -2.03128
upperback 11.8879 2.06501 1.34846
thorax -4.8736 0.902723 1.76419
lowerneck -14.1822 2.34672 0.955588
upperneck 3.02575 3.13986 -2.56832
head 3.58256 1.4463 -0.790776
rclavicle 2.33075e-014 4.17448e-015
rhumerus -29.6288 15.0656 -92.1789
rradius 101.3
rwrist 25.3085
rhand -27.9962 -32.2512
rfingers 7.12502
rthumb -1.38222 -62.2265
lclavicle 2.33075e-014 4.17448e-015
lhumerus -35.722 -14.5159 99.7641
lradius 105.07
lwrist -12.7524
lhand -24.5472 -43.5903
lfingers 7.12502
lthumb 1.94884 -13.6195
rfemur -81.1361 -20.8286 25.5975
rtibia 133.251
rfoot -20.0181 1.73442
rtoes 30.138
lfemur -79.5671 32.9903 -21.1588
ltibia 133.241
lfoot -28.0039 -16.1104
ltoes -3.41592
603
root 1.5751 6.68089 -1.81769 -33.4636 -3.34751 0.77093
lowerback 35.5777 2.14033 -1.99393
upperback 11.8839 2.08537 1.36819
thorax -4.89893 0.912987 1.75685
lowerneck -13.7658 2.37215 0.997518
upperneck 2.86777 3.16767 -2.60665
head 3.44803 1.4634 -0.812724
rclavicle -1.5207e-014 -3.18055e-015
rhumerus -29.7508 14.9162 -92.2026
rradius 101.326
rwrist 25.5588
rhand -27.911 -32.2979
rfingers 7.12502
rthumb -1.29992 -62.2737
lclavicle -1.5207e-014 -3.18055e-015
lhumerus -35.722 -14.5853 99.7793
lradius 105.044
lwrist -12.8653
lhand -24.4796 -43.3627
lfingers 7.12502
lthumb 2.01418 -13.3924
rfemur -81.0586 -20.7931 25.5948
rtibia 133.223
rfoot -20.0186 1.69882
rtoes 30.1082
lfemur -79.4921 33.011 -21.0973
ltibia 133.227
lfoot -28.0801 -16.0942
ltoes -3.59219
604
root 1.57564 6.6835 -1.81779 -33.4712 -3.40979 0.762482
lowerback 35.7689 2.17668 -1.91829
upperback 11.7593 2.15281 1.37834
thorax -4.96775 0.947666 1.70352
lowerneck -13.3275 2.37108 0.807442
upperneck 2.75436 3.18126 -2.37192
head 3.31373 1.48239 -0.703993
rclavicle -5.69021e-015 -3.37934e-015
rhumerus -29.9309 14.6819 -92.2421
rradius 101.472
rwrist 25.7501
rhand -27.547 -32.4229
rfingers 7.12502
rthumb -0.948437 -62.4005
lclavicle -5.69021e-015 -3.37934e-015
lhumerus -35.7059 -14.7127 99.8304
lradius 104.964
lwrist -13.1165
lhand -24.4691 -43.1175
lfingers 7.12502
lthumb 2.02429 -13.1474
rfemur -81.0238 -20.6656 25.6236
rtibia 133.197
rfoot -20.0169 1.63272
rtoes 29.9262
lfemur -79.465 33.109 -21.0383
ltibia 133.224
lfoot -28.1942 -16.0791
ltoes -3.82428
605
root 1.57608 6.68504 -1.81881 -33.4234 -3.44337 0.733371
lowerback 35.8424 2.17796 -1.83388
upperback 11.7236 2.18134 1.3704
thorax -5.03086 0.964265 1.63896
lowerneck -12.964 2.36386 0.664589
upperneck 2.72651 3.17875 -2.12236
head 3.22499 1.49304 -0.59994
rclavicle 1.35671e-014 -6.16232e-015
rhumerus -30.1057 14.5015 -92.3484
rradius 101.645
rwrist 25.9708
rhand -27.1501 -32.5019
rfingers 7.12502
rthumb -0.565094 -62.4809
lclavicle 1.35671e-014 -6.16232e-015
lhumerus -35.7637 -14.8006 99.8464
lradius 104.937
lwrist -13.4591
lhand -24.5114 -43.1037
lfingers 7.12502
lthumb 1.98347 -13.1332
rfemur -81.0674 -20.5616 25.6792
rtibia 133.178
rfoot -19.9873 1.55664
rtoes 29.9216
lfemur -79.5232 33.1071 -21.0099
ltibia 133.219
lfoot -28.2562 -16.0702
ltoes -4.01834
606
root 1.5768 6.68831 -1.81988 -33.3974 -3.40307 0.815285
lowerback 35.9385 2.18742 -1.91813
upperback 11.7052 2.15778 1.31925
thorax -5.08301 0.952599 1.63528
lowerneck -12.6108 2.39114 0.734325
upperneck 2.70839 3.20229 -2.08317
head 3.1518 1.50985 -0.601383
rclavicle -1.40889e-014 1.19271e-015
rhumerus -30.2047 14.5062 -92.4729
rradius 101.775
rwrist 26.1726
rhand -26.9702 -32.4191
rfingers 7.12502
rthumb -0.39129 -62.3985
lclavicle -1.40889e-014 1.19271e-015
lhumerus -35.8958 -14.8192 99.7971
lradius 105.025
lwrist -13.7421
lhand -24.4627 -43.1136
lfingers 7.12502
lthumb 2.0305 -13.1435
rfemur -81.0612 -20.5524 25.5632
rtibia 133.163
rfoot -19.9713 1.5706
rtoes 29.9896
lfemur -79.4941 32.985 -21.099
ltibia 133.194
lfoot -28.2656 -16.0303
ltoes -4.02234
607
root 1.57353 6.69335 -1.81957 -33.5182 -3.53051 0.674955
lowerback 36.1854 2.17776 -1.79644
upperback 11.7341 2.18248 1.34582
thorax -5.13544 0.964957 1.58644
lowerneck -12.2127 2.4138 0.814472
upperneck 2.62259 3.2204 -2.08617
head 3.04794 1.52297 -0.619657
rclavicle -8.34896e-015 -1.78906e-015
rhumerus -30.2439 14.6168 -92.5435
rradius 101.886
rwrist 26.2359
rhand -27.0449 -32.2819
rfingers 7.12502
rthumb -0.463413 -62.2612
lclavicle -8.34896e-015 -1.78906e-015
lhumerus -36.0014 -14.8412 99.7441
lradius 105.171
lwrist -14.0121
lhand -24.2755 -42.9071
lfingers 7.12502
lthumb 2.21126 -12.9388
rfemur -80.7587 -20.3616 25.7193
rtibia 133.094
rfoot -20.0243 1.43976
rtoes 30.0277
lfemur -79.3012 33.2966 -20.7376
ltibia 133.205
lfoot -28.3638 -16.2989
ltoes -3.73063
608
root 1.56711 6.69733 -1.81949 -33.6735 -3.86705 0.200953
lowerback 36.505 2.1119 -1.34254
upperback 11.7887 2.25983 1.48306
thorax -5.18168 1.00544 1.461
lowerneck -11.8177 2.41508 0.775903
upperneck 2.53453 3.22057 -1.96544
head 2.93869 1.5306 -0.577777
rclavicle -4.00054e-015 -1.78906e-015
rhumerus -30.2626 14.7672 -92.582
rradius 102.035
rwrist 26.1975
rhand -27.1707 -32.1429
rfingers 7.12502
rthumb -0.584982 -62.1218
lclavicle -4.00054e-015 -1.78906e-015
lhumerus -36.0427 -14.8614 99.7334
lradius 105.312
lwrist -14.3232
lhand -24.1966 -42.6864
lfingers 7.12502
lthumb 2.28749 -12.7189
rfemur -80.38 -19.8977 26.3289
rtibia 132.984
rfoot -20.045 1.08154
rtoes 30.1558
lfemur -79.1699 34.029 -19.9013
ltibia 133.27
lfoot -28.6134 -16.824
ltoes -3.65149
609
root 1.56401 6.7025 -1.81995 -33.7086 -4.14022 -0.118938
lowerback 36.7534 2.07474 -1.0243
upperback 11.822 2.32573 1.5712
thorax -5.22629 1.03937 1.35999
lowerneck -11.2811 2.43844 0.705036
upperneck 2.30052 3.25016 -1.79542
head 2.75188 1.55575 -0.515025
rclavicle -2.28602e-015 7.55382e-015
rhumerus -30.3175 14.8877 -92.6419
rradius 102.229
rwrist 26.2461
rhand -27.0972 -32.0326
rfingers 7.12502
rthumb -0.513941 -62.0117
lclavicle -2.28602e-015 7.55382e-015
lhumerus -36.1883 -14.8416 99.7574
lradius 105.499
lwrist -14.5994
lhand -24.1942 -42.697
lfingers 7.12502
lthumb 2.28982 -12.7296
rfemur -80.2035 -19.4501 26.7732
rtibia 132.901
rfoot -20.0449 0.784348
rtoes 30.1309
lfemur -79.1474 34.554 -19.367
ltibia 133.306
lfoot -28.8546 -17.1139
ltoes -3.95937
